<?xml version="1.0" standalone="no"?><!DOCTYPE svg PUBLIC "-//W3C//DTD SVG 1.1//EN" "http://www.w3.org/Graphics/SVG/1.1/DTD/svg11.dtd"><svg t="1652065779481" class="icon" viewBox="0 0 1024 1024" version="1.1" xmlns="http://www.w3.org/2000/svg" p-id="8104" xmlns:xlink="http://www.w3.org/1999/xlink" width="200" height="200"><defs><style type="text/css">@font-face { font-family: feedback-iconfont; src: url("//at.alicdn.com/t/font_1031158_u69w8yhxdu.woff2?t=1630033759944") format("woff2"), url("//at.alicdn.com/t/font_1031158_u69w8yhxdu.woff?t=1630033759944") format("woff"), url("//at.alicdn.com/t/font_1031158_u69w8yhxdu.ttf?t=1630033759944") format("truetype"); }
</style></defs><path d="M1016.567973 424.791594A512.01184 512.01184 0 1 0 511.979841 1024h31.99874v-63.99748h-31.99874a447.982361 447.982361 0 1 1 441.518615-524.363353A452.590179 452.590179 0 0 1 959.962201 512.020159v31.99874h63.997481v-31.99874a515.81969 515.81969 0 0 0-7.391709-87.228565z" fill="#BFCBD9" p-id="8105"></path><path d="M639.974801 639.535138h383.984881v63.99748H639.974801zM639.974801 799.784828h383.984881v63.997481H639.974801zM639.974801 960.00252h383.984881v63.99748H639.974801zM479.981101 480.021419H287.98866v63.99748h255.989921V192.032759h-63.99748v287.98866z" fill="#BFCBD9" p-id="8106"></path></svg>