<?xml version="1.0" standalone="no"?><!DOCTYPE svg PUBLIC "-//W3C//DTD SVG 1.1//EN" "http://www.w3.org/Graphics/SVG/1.1/DTD/svg11.dtd"><svg t="1652065407387" class="icon" viewBox="0 0 1024 1024" version="1.1" xmlns="http://www.w3.org/2000/svg" p-id="1319" xmlns:xlink="http://www.w3.org/1999/xlink" width="200" height="200"><defs><style type="text/css">@font-face { font-family: feedback-iconfont; src: url("//at.alicdn.com/t/font_1031158_u69w8yhxdu.woff2?t=1630033759944") format("woff2"), url("//at.alicdn.com/t/font_1031158_u69w8yhxdu.woff?t=1630033759944") format("woff"), url("//at.alicdn.com/t/font_1031158_u69w8yhxdu.ttf?t=1630033759944") format("truetype"); }
</style></defs><path d="M827.741128 554.521442m-28.950356 0a28.291 28.291 0 1 0 57.900711 0 28.291 28.291 0 1 0-57.900711 0Z" p-id="1320" fill="#BFCBD9"></path><path d="M561.758264 588.899414 748.127905 402.530796c11.760858-11.760858 11.760858-29.854958 0-41.61684-11.760858-11.760858-29.854958-11.760858-41.61684 0L520.142447 548.1882c-11.760858 11.760858-11.760858 29.854958 0 41.61684C531.903306 600.661296 549.997406 600.661296 561.758264 588.899414z" p-id="1321" fill="#BFCBD9"></path><path d="M195.353246 554.521442m-28.950356 0a28.291 28.291 0 1 0 57.900711 0 28.291 28.291 0 1 0-57.900711 0Z" p-id="1322" fill="#BFCBD9"></path><path d="M512 267.729647m-28.950356 0a28.291 28.291 0 1 0 57.900711 0 28.291 28.291 0 1 0-57.900711 0Z" p-id="1323" fill="#BFCBD9"></path><path d="M295.7754 353.676112m-28.950356 0a28.291 28.291 0 1 0 57.900711 0 28.291 28.291 0 1 0-57.900711 0Z" p-id="1324" fill="#BFCBD9"></path><path d="M934.496523 703.797257 625.087615 703.797257c-7.237845 0-13.570063-4.523013-17.189498-9.951653 0 0 0 0-0.904603-0.904603-20.807908-33.474392-55.186903-55.186903-93.184309-55.186903-38.902008 0-72.376401 21.712511-93.184309 55.186903 0 0-0.904603 0-0.904603 0.904603-3.618411 6.333242-9.951653 9.951653-17.189498 9.951653l-90.470501 0L89.502453 703.797257c-16.284895 0-28.950356 14.475689-28.950356 33.474392 0 18.0941 12.665461 33.474392 28.950356 33.474392l214.415394 0 102.231359 0c24.427342 0 46.139853-14.475689 58.805314-36.1882 9.951653-18.0941 28.045753-30.759561 47.949059-30.759561s37.997406 11.760858 47.949059 30.759561c12.665461 21.712511 34.378995 36.1882 58.805314 36.1882l313.931922 0c16.284895 0 28.950356-14.475689 28.950356-33.474392C963.446879 719.17755 950.781418 703.797257 934.496523 703.797257z" p-id="1325" fill="#BFCBD9"></path><path d="M905.546168 68.694545 119.358435 68.694545c-31.664164 0-57.900711 26.236548-57.900711 57.900711l0 540.108175 49.758264 0L111.215988 126.59628c0-4.523013 3.618411-8.142447 8.142447-8.142447l786.187733 0c4.523013 0 8.142447 3.618411 8.142447 8.142447l0 540.108175 49.758264 0L963.446879 126.59628C963.446879 94.931093 937.210331 68.694545 905.546168 68.694545z" p-id="1326" fill="#BFCBD9"></path><path d="M913.688615 897.40372c0 4.524037-3.618411 8.142447-8.142447 8.142447L118.453832 905.546168c-4.524037 0-8.142447-3.618411-8.142447-8.142447l0-99.517551L60.552098 797.886169l0 99.517551c0 31.664164 26.236548 57.900711 57.900711 57.900711l786.187733 0c31.664164 0 57.900711-26.236548 57.900711-57.900711l0-99.517551-49.758264 0L913.688615 897.40372 913.688615 897.40372z" p-id="1327" fill="#BFCBD9"></path></svg>