<?xml version="1.0" standalone="no"?><!DOCTYPE svg PUBLIC "-//W3C//DTD SVG 1.1//EN" "http://www.w3.org/Graphics/SVG/1.1/DTD/svg11.dtd"><svg t="1652065839971" class="icon" viewBox="0 0 1024 1024" version="1.1" xmlns="http://www.w3.org/2000/svg" p-id="9033" xmlns:xlink="http://www.w3.org/1999/xlink" width="200" height="200"><defs><style type="text/css">@font-face { font-family: feedback-iconfont; src: url("//at.alicdn.com/t/font_1031158_u69w8yhxdu.woff2?t=1630033759944") format("woff2"), url("//at.alicdn.com/t/font_1031158_u69w8yhxdu.woff?t=1630033759944") format("woff"), url("//at.alicdn.com/t/font_1031158_u69w8yhxdu.ttf?t=1630033759944") format("truetype"); }
</style></defs><path d="M756.37 883.63h-493c-57.43 0-104.15-46.72-104.15-104.15V611.32c0-47.15 9.32-93 27.7-136.25 17.72-41.7 43.04-79.19 75.28-111.42 32.23-32.23 69.72-57.56 111.42-75.28 43.26-18.38 89.1-27.7 136.25-27.7s93 9.32 136.26 27.7c41.7 17.72 79.19 43.04 111.42 75.28 32.23 32.23 57.56 69.72 75.28 111.42 18.38 43.26 27.7 89.1 27.7 136.25v168.15c-0.01 57.44-46.73 104.16-104.16 104.16z m-246.5-546.96c-151.44 0-274.65 123.21-274.65 274.65v168.15c0 15.52 12.63 28.15 28.15 28.15h493c15.52 0 28.15-12.63 28.15-28.15V611.32c0-151.44-123.2-274.65-274.65-274.65zM917.59 1012.13H106.41c-20.99 0-38-17.01-38-38s17.01-38 38-38h811.18c20.99 0 38 17.01 38 38s-17.01 38-38 38z" fill="#BFCBD9" p-id="9034"></path><path d="M324.9 883.63c-20.99 0-38-17.01-38-38V628.71c0-20.99 17.01-38 38-38s38 17.01 38 38v216.92c0 20.99-17.01 38-38 38zM504.85 210.83c-20.99 0-38-17.01-38-38V49.87c0-20.99 17.01-38 38-38s38 17.01 38 38v122.96c0 20.98-17.01 38-38 38zM225.22 318.22c-9.73 0-19.45-3.71-26.87-11.13l-86.95-86.95c-14.84-14.84-14.84-38.9 0-53.74 14.84-14.84 38.9-14.84 53.74 0l86.95 86.95c14.84 14.84 14.84 38.9 0 53.74-7.42 7.42-17.15 11.13-26.87 11.13zM793.27 318.22c-9.72 0-19.45-3.71-26.87-11.13-14.84-14.84-14.84-38.9 0-53.74l86.95-86.95c14.84-14.84 38.9-14.84 53.74 0s14.84 38.9 0 53.74l-86.95 86.95c-7.42 7.42-17.14 11.13-26.87 11.13z" fill="#BFCBD9" p-id="9035"></path></svg>