<?xml version="1.0" standalone="no"?><!DOCTYPE svg PUBLIC "-//W3C//DTD SVG 1.1//EN" "http://www.w3.org/Graphics/SVG/1.1/DTD/svg11.dtd"><svg t="1652065603936" class="icon" viewBox="0 0 1024 1024" version="1.1" xmlns="http://www.w3.org/2000/svg" p-id="2231" xmlns:xlink="http://www.w3.org/1999/xlink" width="200" height="200"><defs><style type="text/css">@font-face { font-family: feedback-iconfont; src: url("//at.alicdn.com/t/font_1031158_u69w8yhxdu.woff2?t=1630033759944") format("woff2"), url("//at.alicdn.com/t/font_1031158_u69w8yhxdu.woff?t=1630033759944") format("woff"), url("//at.alicdn.com/t/font_1031158_u69w8yhxdu.ttf?t=1630033759944") format("truetype"); }
</style></defs><path d="M999.376546 512.000465H535.272241a23.179615 23.179615 0 0 1-23.226161-23.179615V23.180546c0-12.799988 10.379627-23.179615 23.226161-23.179615a488.075193 488.075193 0 0 1 345.366958 142.289325A487.19083 487.19083 0 0 1 1023.999069 486.959034a25.041432 25.041432 0 0 1-24.622523 25.041431z m-440.971235-46.35923h417.79162a441.250508 441.250508 0 0 0-417.79162-417.419257v417.419257z" p-id="2232" fill="#BFCBD9"></path><path d="M418.90871 142.429892v412.857807a46.545412 46.545412 0 0 0 46.545412 46.545412h418.90871A418.90871 418.90871 0 1 1 418.90871 142.429892zM465.454122 93.091755C208.383811 93.091755 0 301.475566 0 558.545878s208.383811 465.454122 465.454122 465.454122 465.454122-208.383811 465.454123-465.454122v-3.258179H465.454122V93.091755z" p-id="2233" fill="#BFCBD9"></path></svg>