<?xml version="1.0" standalone="no"?><!DOCTYPE svg PUBLIC "-//W3C//DTD SVG 1.1//EN" "http://www.w3.org/Graphics/SVG/1.1/DTD/svg11.dtd"><svg t="1652065710474" class="icon" viewBox="0 0 1024 1024" version="1.1" xmlns="http://www.w3.org/2000/svg" p-id="5849" xmlns:xlink="http://www.w3.org/1999/xlink" width="200" height="200"><defs><style type="text/css">@font-face { font-family: feedback-iconfont; src: url("//at.alicdn.com/t/font_1031158_u69w8yhxdu.woff2?t=1630033759944") format("woff2"), url("//at.alicdn.com/t/font_1031158_u69w8yhxdu.woff?t=1630033759944") format("woff"), url("//at.alicdn.com/t/font_1031158_u69w8yhxdu.ttf?t=1630033759944") format("truetype"); }
</style></defs><path d="M1024 896l0 64L448 960l0-64L1024 896zM570.688 832 512 832l0-64L512 576c0-105.6 81.088-192 186.688-192l64 0C868.288 384 960 470.4 960 576l0 192 0 64-69.312 0L570.688 832zM576 768l64 0 0-128 64 0 0 128 192 0L896 576c0-70.592-62.72-128-133.312-128l-64 0C628.096 448 576 505.408 576 576L576 768zM448 768 64 768 64 576l128 0L192 512 64 512 64 320l128 0L192 256 64 256 64 192 64 128 64 64l128 0 0 64 0 64 61.312 0 122.688 0L448 192 448 128 448 64l128 0 0 64 0 64 58.688 0 61.312 0L768 192 768 128 768 64l128 0 0 64 0 64 0 64-64 0 0 64 64 0 0 38.144c24.192 14.528 45.568 32.704 64 53.824L960 192 960 128 960 0l-256 0 0 128-64 0L640 0 384 0l0 128L256 128 256 0 0 0l0 128 0 64 0 640 384 0 64 0L448 768zM319.68 384l-128 0 0 64 128 0L319.68 384zM530.368 385.984 446.656 385.984l0 64 34.112 0C493.952 425.856 510.464 404.352 530.368 385.984zM449.664 256l-128 0 0 64 128 0L449.664 256zM704.64 320 704.64 256l-128 0 0 64 121.984 0L704.64 320zM191.68 702.976l128 0 0-64-128 0L191.68 702.976zM446.656 512l-128 0 0 64 128 0L446.656 512z" p-id="5850" fill="#BFCBD9"></path></svg>