<?xml version="1.0" standalone="no"?><!DOCTYPE svg PUBLIC "-//W3C//DTD SVG 1.1//EN" "http://www.w3.org/Graphics/SVG/1.1/DTD/svg11.dtd"><svg t="1651909261469" class="icon" viewBox="0 0 1024 1024" version="1.1" xmlns="http://www.w3.org/2000/svg" p-id="5421" xmlns:xlink="http://www.w3.org/1999/xlink" width="200" height="200"><defs><style type="text/css">@font-face { font-family: feedback-iconfont; src: url("//at.alicdn.com/t/font_1031158_u69w8yhxdu.woff2?t=1630033759944") format("woff2"), url("//at.alicdn.com/t/font_1031158_u69w8yhxdu.woff?t=1630033759944") format("woff"), url("//at.alicdn.com/t/font_1031158_u69w8yhxdu.ttf?t=1630033759944") format("truetype"); }
</style></defs><path d="M512 320.2c-80.3 0-145.7 69.5-145.7 154.8 0 41.4 15.2 80.3 42.7 109.5 27.5 29.2 64.1 45.4 103 45.4 38.8 0 75.4-16.1 102.9-45.4 27.5-29.3 42.7-68.2 42.7-109.5 0.1-85.3-65.3-154.8-145.6-154.8z m-0.5 223.7c-18.3 0-35.5-7.6-48.4-21.5-12.9-13.9-20.1-32.3-20.1-52 0-40.5 30.7-73.5 68.5-73.5s68.5 33 68.5 73.5-30.7 73.5-68.5 73.5z" p-id="5422" fill="#BFCBD9"></path><path d="M881 421.2v-5.4c-0.8-95-40.3-184-111.2-250.7C699.5 98.9 606.6 62.5 509 63.9c-203.4 1.6-367.6 161.9-366 357.4v5.9c1.4 150.1 100.9 281.9 248.5 330.1l-48.7 125.1h-97.2c-18.5 0-36.1 11.5-40.5 29.4-6.3 25.5 13.8 48.3 39.3 48.3h534.2c18.5 0 36.1-11.5 40.5-29.5 6.2-25.5-13.8-48.2-39.3-48.2h-98.5l-48.7-125c53.7-17.5 103.1-47.3 143.3-86.6 68.7-67 106-155.7 105.1-249.6zM429 882.4l44.6-118.8c14.3 1.5 27.3 2.3 39.6 2.3h9.3c11.6-0.1 23.8-0.8 37.2-2.2l44.6 118.7H429z m237.3-233.6c-45.2 26.6-98.3 39.3-151.7 39.4H509c-157.6 0-286.9-119-288.3-265.2v-5.8C219.4 268 349 145.6 509.7 144.4h2.3c159.3 0 290 120.3 291.3 268.2v5.3c0.9 92.8-48.7 178.8-137 230.9z" p-id="5423" fill="#BFCBD9"></path><path d="M512 280.4c21.4 0 38.8-17.4 38.8-38.8s-17.4-38.8-39-38.8c-6.6 0.2-13.3 2-19.3 5.3-11.8 6.9-19.3 19.8-19.4 33.5 0.1 21.3 17.5 38.8 38.9 38.8z" p-id="5424" fill="#BFCBD9"></path></svg>