<?xml version="1.0" standalone="no"?><!DOCTYPE svg PUBLIC "-//W3C//DTD SVG 1.1//EN" "http://www.w3.org/Graphics/SVG/1.1/DTD/svg11.dtd"><svg t="1651909125189" class="icon" viewBox="0 0 1024 1024" version="1.1" xmlns="http://www.w3.org/2000/svg" p-id="4256" xmlns:xlink="http://www.w3.org/1999/xlink" width="200" height="200"><defs><style type="text/css">@font-face { font-family: feedback-iconfont; src: url("//at.alicdn.com/t/font_1031158_u69w8yhxdu.woff2?t=1630033759944") format("woff2"), url("//at.alicdn.com/t/font_1031158_u69w8yhxdu.woff?t=1630033759944") format("woff"), url("//at.alicdn.com/t/font_1031158_u69w8yhxdu.ttf?t=1630033759944") format("truetype"); }
</style></defs><path d="M820.48 956.16h-139.4688c-16.9472 0-30.72-13.7728-30.72-30.72s13.7728-30.72 30.72-30.72h139.4688c39.5264 0 71.68-32.1536 71.68-71.68v-128c0-16.9472 13.7728-30.72 30.72-30.72s30.72 13.7728 30.72 30.72v128c0 73.4208-59.7504 133.12-133.12 133.12zM922.88 382.72c-16.9472 0-30.72-13.7728-30.72-30.72v-143.36c0-39.5264-32.1536-71.68-71.68-71.68h-139.4688c-16.9472 0-30.72-13.7728-30.72-30.72s13.7728-30.72 30.72-30.72h139.4688c73.4208 0 133.12 59.6992 133.12 133.12v143.36c0 16.9984-13.7728 30.72-30.72 30.72zM103.68 382.72c-16.9472 0-30.72-13.7728-30.72-30.72v-143.36c0-73.4208 59.6992-133.12 133.12-133.12h138.24c16.9472 0 30.72 13.7728 30.72 30.72s-13.7728 30.72-30.72 30.72h-138.24c-39.5264 0-71.68 32.1536-71.68 71.68v143.36c0 16.9984-13.7728 30.72-30.72 30.72zM344.32 956.16h-138.24c-73.4208 0-133.12-59.6992-133.12-133.12v-128c0-16.9472 13.7728-30.72 30.72-30.72s30.72 13.7728 30.72 30.72v128c0 39.5264 32.1536 71.68 71.68 71.68h138.24c16.9472 0 30.72 13.7728 30.72 30.72s-13.7728 30.72-30.72 30.72zM513.28 761.6c-115.7632 0-209.92-110.2336-209.92-245.76s94.1568-245.76 209.92-245.76 209.92 110.2336 209.92 245.76-94.208 245.76-209.92 245.76z m0-430.08c-81.8688 0-148.48 82.688-148.48 184.32s66.6112 184.32 148.48 184.32 148.48-82.688 148.48-184.32-66.6112-184.32-148.48-184.32z" fill="#BFCBD9" p-id="4257"></path><path d="M825.6 546.56h-624.64c-16.9472 0-30.72-13.7728-30.72-30.72s13.7728-30.72 30.72-30.72h624.64c16.9472 0 30.72 13.7728 30.72 30.72s-13.7728 30.72-30.72 30.72z" fill="#BFCBD9" p-id="4258"></path></svg>