<?xml version="1.0" standalone="no"?><!DOCTYPE svg PUBLIC "-//W3C//DTD SVG 1.1//EN" "http://www.w3.org/Graphics/SVG/1.1/DTD/svg11.dtd"><svg t="1651908557966" class="icon" viewBox="0 0 1024 1024" version="1.1" xmlns="http://www.w3.org/2000/svg" p-id="2191" xmlns:xlink="http://www.w3.org/1999/xlink" width="200" height="200"><defs><style type="text/css">@font-face { font-family: feedback-iconfont; src: url("//at.alicdn.com/t/font_1031158_u69w8yhxdu.woff2?t=1630033759944") format("woff2"), url("//at.alicdn.com/t/font_1031158_u69w8yhxdu.woff?t=1630033759944") format("woff"), url("//at.alicdn.com/t/font_1031158_u69w8yhxdu.ttf?t=1630033759944") format("truetype"); }
</style></defs><path d="M919.87203 0.00128h-95.969889a31.734043 31.734043 0 0 0-31.989963 31.989963 31.734043 31.734043 0 0 0 31.989963 31.989963h95.969889v95.969889a31.734043 31.734043 0 0 0 31.989963 31.989963 31.734043 31.734043 0 0 0 31.989963-31.989963V63.981206a63.979926 63.979926 0 0 0-63.979926-63.979926z m31.989963 511.83941a31.734043 31.734043 0 0 0-31.989963 31.989963V639.800543h-95.969889a31.734043 31.734043 0 0 0-22.648894 9.341069c-1.727458 1.727458-2.559197 3.902776-3.838796 5.950133-36.148658-34.7411-76.711932-63.340127-121.56186-82.278185 91.171395-54.446917 148.817309-159.246037 131.158849-276.905121-16.698761-110.493333-102.367882-202.816366-211.773556-225.6572a288.101608 288.101608 0 0 0-59.245412-6.142073 274.090004 274.090004 0 0 0-274.217964 274.153984c0 100.128585 54.254978 186.821385 134.357845 234.67837-44.785948 19.002038-85.413202 47.537085-121.561859 82.278185-1.279599-2.047358-2.175317-4.222675-3.838796-5.950133a31.734043 31.734043 0 0 0-22.648894-9.34107h-95.969889v-95.969889a31.734043 31.734043 0 0 0-31.989964-31.989963 31.734043 31.734043 0 0 0-31.989963 31.989963v95.969889a63.979926 63.979926 0 0 0 63.979927 63.979927h78.823269a513.502888 513.502888 0 0 0-102.239922 252.784689 60.269091 60.269091 0 0 0 59.94919 67.114942h694.63006a60.39705 60.39705 0 0 0 60.013171-67.114942A513.438909 513.438909 0 0 0 841.048761 703.780469h78.823269a63.979926 63.979926 0 0 0 63.979926-63.979926V543.830653a31.734043 31.734043 0 0 0-31.989963-31.989963zM192.676188 960.851813c19.321938-151.760385 106.590557-277.54492 228.408337-329.048761a63.851966 63.851966 0 1 0 7.869531-113.884269 208.25466 208.25466 0 0 1-103.199621-179.783593A210.365998 210.365998 0 0 1 535.992472 127.961132c15.355182 0 30.838324 1.599498 46.129527 4.926455 82.406145 17.27458 148.881288 88.164338 161.549314 172.617841a207.422921 207.422921 0 0 1-100.768384 212.477335c-20.665516 12.348126-32.629762 35.316919-31.030264 59.437351 1.663478 24.120432 16.634781 45.105848 38.963775 54.510898 121.62584 51.183941 208.830479 176.584597 228.408337 327.769162l-686.568589 1.151639zM120.122951 191.941058a31.734043 31.734043 0 0 0 31.989964-31.989963V63.981206h95.969889a31.734043 31.734043 0 0 0 31.989963-31.989963 31.734043 31.734043 0 0 0-31.989963-31.989963h-95.969889a63.979926 63.979926 0 0 0-63.979927 63.979926v95.969889a31.734043 31.734043 0 0 0 31.989963 31.989963z" fill="#BFCBD9" p-id="2192"></path></svg>