<?xml version="1.0" standalone="no"?><!DOCTYPE svg PUBLIC "-//W3C//DTD SVG 1.1//EN" "http://www.w3.org/Graphics/SVG/1.1/DTD/svg11.dtd"><svg t="1651908724173" class="icon" viewBox="0 0 1024 1024" version="1.1" xmlns="http://www.w3.org/2000/svg" p-id="3132" xmlns:xlink="http://www.w3.org/1999/xlink" width="200" height="200"><defs><style type="text/css">@font-face { font-family: feedback-iconfont; src: url("//at.alicdn.com/t/font_1031158_u69w8yhxdu.woff2?t=1630033759944") format("woff2"), url("//at.alicdn.com/t/font_1031158_u69w8yhxdu.woff?t=1630033759944") format("woff"), url("//at.alicdn.com/t/font_1031158_u69w8yhxdu.ttf?t=1630033759944") format("truetype"); }
</style></defs><path d="M486.457 588.924c-0.038-4.005-0.973-24.687-13.326-37.019-5.558-5.56-14.878-10.425-29.532-17.761-7.411-3.688-19.688-9.864-22.702-12.689 12.521-15.328 19.782-32.677 19.782-47.893 0-10.312 0-23.132-5.801-34.567-5.185-10.313-16.807-22.552-42.634-22.552-25.809 0-37.431 12.24-42.633 22.552-5.802 11.435-5.802 24.255-5.802 34.567 0 15.216 7.281 32.564 19.801 47.893-3.013 2.845-15.309 9.002-22.701 12.689-14.691 7.336-23.993 12.201-29.551 17.761-12.334 12.332-13.27 33.014-13.326 37.019-0.037 4.21-0.393 8.44 2.564 11.416 2.957 3.014 5.558 4.548 9.788 4.548h164.583c4.21 0 6.27-1.684 9.208-4.642 2.955-3.014 2.375-7.112 2.282-11.322z m-11.922 3.425c-0.768 0.749-1.741 1.16-2.807 1.16l-158.407-0.411a3.97 3.97 0 0 1-2.769-1.143c-0.749-0.747-1.161-3.144-1.142-4.174 0.037-1.983 0.187-16.244 9.488-25.565 4.286-4.285 9.601-8.796 22.533-15.832 12.895-6.963 19.801-10.817 24.966-13.456l14.879-8.722-8.946-11.66c-10.893-13.381-16.414-25.864-16.414-38.216 0-9.545 2.377-24.536 6.924-33.463 5.372-10.706 13.494-14.785 29.402-14.785 15.926 0 25.004 3.294 30.394 13.999 4.511 8.927 7.318 23.712 7.318 33.257 0 12.334-5.783 26.033-16.638 39.396l-9.676 11.322 6.494 4.118c4.772 3.518 10.667 7.204 24.742 14.278 13.213 6.589 26.594 12.896 30.917 17.219 7.58 7.541 9.582 20.587 9.676 27.773 0.039 1.048-0.223 4.136-0.934 4.905z" p-id="3133" fill="#BFCBD9"></path><path d="M527.555 561.449h222.694v-33.855H527.555v33.855z m0-145.006v33.856h222.694v-33.856H527.555zM297.994 685.98h452.255v-33.855H297.994v33.855z m0 112.499h452.255v-33.855H297.994v33.855z" p-id="3134" fill="#BFCBD9"></path><path d="M831.698 194.573H750.94c-21.953-37.673-62.267-63.22-108.923-63.22 0-69.827-56.632-126.459-126.44-126.459-69.808 0-126.44 56.632-126.44 126.459-46.657 0-86.97 25.546-108.923 63.22h-80.738c-69.846 0.001-126.44 56.596-126.44 126.422v569.002c0 69.826 56.595 126.459 126.44 126.459h632.222c69.807 0 126.421-56.633 126.421-126.459V320.995c0-69.826-56.614-126.422-126.421-126.422z m-531.946 34.324c0-34.866 54.48-66.981 89.385-66.981h38.553l-0.898-30.563c0-34.904 16.057-90.676 88.785-90.676 71.979 0 93.39 55.772 93.39 90.676v30.563l33.051-0.655c34.904 0 93.089 32.096 93.089 66.963v92.771H299.752v-92.098z m494.982 127.938v496.984l-559.942 0.001V356.835h559.942z m131.288 524.907c0 43.813-40.462 100.688-94.324 100.688H199.476c-34.885 0-91.967-39.47-91.967-92.434V320.995c0-54.536 49.296-92.098 91.967-92.098h63.202v92.098h-63.202v569.002h632.222V320.995h-63.222v-92.771h63.222c51.166 0 94.324 41.267 94.324 84.518v569zM609.023 191.954l-0.057-30.038H427.69l-0.262 29.85 181.595 0.188z" p-id="3135" fill="#BFCBD9"></path></svg>