<?xml version="1.0" standalone="no"?><!DOCTYPE svg PUBLIC "-//W3C//DTD SVG 1.1//EN" "http://www.w3.org/Graphics/SVG/1.1/DTD/svg11.dtd"><svg t="1652066162344" class="icon" viewBox="0 0 1024 1024" version="1.1" xmlns="http://www.w3.org/2000/svg" p-id="14538" xmlns:xlink="http://www.w3.org/1999/xlink" width="200" height="200"><defs><style type="text/css">@font-face { font-family: feedback-iconfont; src: url("//at.alicdn.com/t/font_1031158_u69w8yhxdu.woff2?t=1630033759944") format("woff2"), url("//at.alicdn.com/t/font_1031158_u69w8yhxdu.woff?t=1630033759944") format("woff"), url("//at.alicdn.com/t/font_1031158_u69w8yhxdu.ttf?t=1630033759944") format("truetype"); }
</style></defs><path d="M962.021053 339.536842c-18.863158-10.778947-37.726316-10.778947-56.589474 0L781.473684 412.294737v-137.431579c0-51.2-40.421053-91.621053-91.621052-91.621053H126.652632c-51.2 0-91.621053 40.421053-91.621053 91.621053V754.526316c0 51.2 40.421053 91.621053 91.621053 91.621052h560.505263c51.2 0 91.621053-40.421053 91.621052-91.621052v-67.368421l123.957895 70.063158c8.084211 5.389474 18.863158 8.084211 26.947369 8.08421 10.778947 0 18.863158-2.694737 26.947368-8.08421 18.863158-10.778947 29.642105-29.642105 29.642105-48.505264V388.042105c2.694737-18.863158-8.084211-37.726316-24.252631-48.505263zM687.157895 805.726316H126.652632c-29.642105 0-53.894737-24.252632-53.894737-53.894737V272.168421c0-29.642105 24.252632-53.894737 53.894737-53.894737h560.505263c29.642105 0 53.894737 24.252632 53.894737 53.894737v479.663158c2.694737 29.642105-24.252632 53.894737-53.894737 53.894737z m264.08421-99.705263c0 10.778947-5.389474 13.473684-8.08421 16.168421-2.694737 2.694737-10.778947 5.389474-18.863158 0L781.473684 638.652632v-185.936843l142.821053-83.536842c8.084211-5.389474 16.168421-2.694737 18.863158 0 2.694737 2.694737 8.084211 5.389474 8.08421 16.168421v320.673685z" fill="#BFCBD9" p-id="14539"></path><path d="M404.210526 326.063158c-97.010526 0-175.157895 78.147368-175.157894 175.157895s78.147368 175.157895 175.157894 175.157894 175.157895-78.147368 175.157895-175.157894-75.452632-175.157895-175.157895-175.157895z m0 315.28421c-75.452632 0-137.431579-61.978947-137.431579-137.431579s61.978947-137.431579 137.431579-137.431578 137.431579 61.978947 137.431579 137.431578-59.284211 137.431579-137.431579 137.431579z" fill="#BFCBD9" p-id="14540"></path></svg>