<?xml version="1.0" standalone="no"?><!DOCTYPE svg PUBLIC "-//W3C//DTD SVG 1.1//EN" "http://www.w3.org/Graphics/SVG/1.1/DTD/svg11.dtd"><svg t="1652066184826" class="icon" viewBox="0 0 1024 1024" version="1.1" xmlns="http://www.w3.org/2000/svg" p-id="15412" xmlns:xlink="http://www.w3.org/1999/xlink" width="200" height="200"><defs><style type="text/css">@font-face { font-family: feedback-iconfont; src: url("//at.alicdn.com/t/font_1031158_u69w8yhxdu.woff2?t=1630033759944") format("woff2"), url("//at.alicdn.com/t/font_1031158_u69w8yhxdu.woff?t=1630033759944") format("woff"), url("//at.alicdn.com/t/font_1031158_u69w8yhxdu.ttf?t=1630033759944") format("truetype"); }
</style></defs><path d="M749.824 317.376l-128.64 196.352h-184.64l-129.728 183.36a64 64 0 1 1-25.216-19.776l138.4-195.584h183.872l118.496-180.864a64 64 0 1 1 27.456 16.512zM544 896v32H128a32 32 0 0 1-32-32V128a32 32 0 0 1 32-32h768a32 32 0 0 1 32 32v555.328a128.576 128.576 0 0 0-32-26.208V128H128v768h416z m224-608a32 32 0 1 0 0-64 32 32 0 0 0 0 64zM256 768a32 32 0 1 0 0-64 32 32 0 0 0 0 64z m392.896-96h152.192a128 128 0 1 1 0 256h-192v-32h192a96 96 0 0 0 0-192h-155.168l54.304 52.48a16 16 0 0 1-22.24 23.04l-92-88.96 91.68-93.76a16 16 0 1 1 22.88 22.4L648.896 672z" p-id="15413" fill="#BFCBD9"></path><path d="M768 304a48 48 0 1 0 0-96 48 48 0 0 0 0 96z m-512 480a48 48 0 1 0 0-96 48 48 0 0 0 0 96z" p-id="15414" fill="#BFCBD9"></path></svg>