<?xml version="1.0" standalone="no"?><!DOCTYPE svg PUBLIC "-//W3C//DTD SVG 1.1//EN" "http://www.w3.org/Graphics/SVG/1.1/DTD/svg11.dtd"><svg t="1652066134913" class="icon" viewBox="0 0 1024 1024" version="1.1" xmlns="http://www.w3.org/2000/svg" p-id="13673" xmlns:xlink="http://www.w3.org/1999/xlink" width="200" height="200"><defs><style type="text/css">@font-face { font-family: feedback-iconfont; src: url("//at.alicdn.com/t/font_1031158_u69w8yhxdu.woff2?t=1630033759944") format("woff2"), url("//at.alicdn.com/t/font_1031158_u69w8yhxdu.woff?t=1630033759944") format("woff"), url("//at.alicdn.com/t/font_1031158_u69w8yhxdu.ttf?t=1630033759944") format("truetype"); }
</style></defs><path d="M403.92 191.51h137.8a24 24 0 0 0 0-48h-137.8a24 24 0 0 0 0 48zM225.3 511.26H388a24 24 0 0 0 0-48H225.3a24 24 0 1 0 0 48zM225.3 696.78h226.85a24 24 0 0 0 0-48H225.3a24 24 0 1 0 0 48z" fill="#BFCBD9" p-id="13674"></path><path d="M511.72 885.53H180.58c-18.4 0-33.36-19-33.36-42.46v-482h651.19V470a24 24 0 1 0 48 0V234c0-49.88-36.49-90.46-81.35-90.46h-71.49a24 24 0 0 0 0 48h71.49c18.39 0 33.35 19.05 33.35 42.46v79.08H147.22V234c0-23.41 15-42.46 33.36-42.46h67.09a24 24 0 1 0 0-48h-67.09c-44.86 0-81.36 40.58-81.36 90.46v609.1c0 49.88 36.5 90.46 81.36 90.46h331.14a24 24 0 0 0 0-48z" fill="#BFCBD9" p-id="13675"></path><path d="M619.64 234.32a24 24 0 0 0 24-24v-95.85a24 24 0 0 0-48 0v95.85a24 24 0 0 0 24 24zM326 234.32a24 24 0 0 0 24-24v-95.85a24 24 0 0 0-48 0v95.85a24 24 0 0 0 24 24zM861.61 565.33a215.7 215.7 0 1 0 63.17 152.52 214.27 214.27 0 0 0-63.17-152.52z m-152.52 320.2c-92.46 0-167.68-75.22-167.68-167.68s75.22-167.69 167.68-167.69 167.69 75.22 167.69 167.69-75.22 167.68-167.69 167.68z" fill="#BFCBD9" p-id="13676"></path><path d="M804.93 687.09H745.4l15.88-65.49c0-4 0-7.94-2-9.92s-4-4-7.93-4-6 2-7.94 2a2 2 0 0 0-2 2l-111.1 115.1c-2 2-2 6 0 9.92 2 2 4 4 9.92 4h51.59l-31.75 73.42v2a15 15 0 0 0 2 7.94c2 2 4 4 7.94 4 2 0 4 0 6-2a2 2 0 0 0 2-2l131-121c0-2 4-6 2-9.92 1.86-2.08-2.11-6.05-6.08-6.05z" fill="#BFCBD9" p-id="13677"></path></svg>